<?xml version="1.0" ?><!DOCTYPE svg  PUBLIC '-//W3C//DTD SVG 1.1//EN'  'http://www.w3.org/Graphics/SVG/1.1/DTD/svg11.dtd'><svg enable-background="new 0 0 64 64" height="64px" id="Layer_1" version="1.1" viewBox="0 0 64 64" width="64px" xml:space="preserve" xmlns="http://www.w3.org/2000/svg" xmlns:xlink="http://www.w3.org/1999/xlink"><g><g><circle cx="10.216" cy="53.787" fill="#FA9826" r="8.713"/><path d="M1,21.833v11.622C18,33.454,30.548,46,30.548,63h11.619C42.167,40,24,21.833,1,21.833z" fill="#EF8114"/><path d="M2,1.5v11.618C29,13.118,50.883,35,50.883,63H62.5C62.5,29,35,1.5,2,1.5z" fill="#EF8114"/></g><g><circle cx="10.216" cy="53.787" fill="#FA9826" r="8.713"/><path d="M1,21.833v11.622c15,0,27.725,11.251,29.334,25.751c3.983-1.15,7.65-2.682,11.031-4.459    C37.771,35.972,21,21.833,1,21.833z" fill="#FA9826"/><path d="M58.021,39.856C48.953,17.328,27,1.5,2,1.5v11.618c22,0,41.48,15.288,47.11,36.366    C52.85,46.458,55.986,43.645,58.021,39.856z" fill="#FA9826"/></g><g><path d="M10.216,45.073c-4.812,0-8.715,3.9-8.715,8.712c0,2.794,1.322,5.277,3.366,6.871    c4.718-1.698,9.465-4.129,14.044-7.251C18.709,48.77,14.898,45.073,10.216,45.073z" fill="#FA9826"/><path d="M1,21.833v11.622c11,0,20.212,5.649,25.301,14.078c0.99-0.886,1.926-1.8,2.884-2.755    c1.897-1.899,3.601-4.016,5.223-6.028C27.022,28.429,15,21.833,1,21.833z" fill="#FA9826"/><path d="M2,1.5v11.618c15,0,29.031,7.148,38.094,18.309c2.273-3.734,4.132-7.155,5.477-10.95    C34.475,9.03,19,1.5,2,1.5z" fill="#FA9826"/></g><g><path d="M14.314,46.097c-1.224-0.653-2.617-1.023-4.099-1.023c-4.812,0-8.715,3.9-8.715,8.712    c0,1.673,0.48,3.23,1.297,4.559C7.204,55.463,11.122,51.273,14.314,46.097z" fill="#F9BD28"/><path d="M21.418,27.122C15.475,23.717,9,21.833,1,21.833v11.622c6.859,0.062,12,2.108,16.78,5.182    C19.273,35.075,20.562,31.197,21.418,27.122z" fill="#F9BD28"/><path d="M2,13.118c7,0,14.688,1.83,21.175,4.969c0.141-1.842,0.105-3.777,0.105-5.674    c0-2.399,0.066-4.755-0.157-7.063C16.486,2.866,9,1.5,2,1.5V13.118z" fill="#F9BD28"/></g></g></svg>